<?xml version="1.0" standalone="no"?>
<!DOCTYPE svg PUBLIC "-//W3C//DTD SVG 1.1//EN" "http://www.w3.org/Graphics/SVG/1.1/DTD/svg11.dtd" >
<svg xmlns="http://www.w3.org/2000/svg">
<metadata>
Created by FontForge 20120731 at Tue Nov 22 10:39:59 2016
 By admin
</metadata>
<defs>
<font id="iconfont" horiz-adv-x="1024" >
  <font-face 
    font-family="iconfont"
    font-weight="500"
    font-stretch="normal"
    units-per-em="1024"
    panose-1="2 0 6 3 0 0 0 0 0 0"
    ascent="896"
    descent="-128"
    x-height="792"
    bbox="0 -128 1428 896"
    underline-thickness="0"
    underline-position="0"
    unicode-range="U+0078-E7CF"
  />
<missing-glyph 
 />
    <glyph glyph-name=".notdef" 
 />
    <glyph glyph-name=".notdef" 
 />
    <glyph glyph-name=".null" horiz-adv-x="0" 
 />
    <glyph glyph-name="nonmarkingreturn" horiz-adv-x="341" 
 />
    <glyph glyph-name="x" unicode="x" horiz-adv-x="1001" 
d="M281 543q-27 -1 -53 -1h-83q-18 0 -36.5 -6t-32.5 -18.5t-23 -32t-9 -45.5v-76h912v41q0 16 -0.5 30t-0.5 18q0 13 -5 29t-17 29.5t-31.5 22.5t-49.5 9h-133v-97h-438v97zM955 310v-52q0 -23 0.5 -52t0.5 -58t-10.5 -47.5t-26 -30t-33 -16t-31.5 -4.5q-14 -1 -29.5 -0.5
t-29.5 0.5h-32l-45 128h-439l-44 -128h-29h-34q-20 0 -45 1q-25 0 -41 9.5t-25.5 23t-13.5 29.5t-4 30v167h911zM163 247q-12 0 -21 -8.5t-9 -21.5t9 -21.5t21 -8.5q13 0 22 8.5t9 21.5t-9 21.5t-22 8.5zM316 123q-8 -26 -14 -48q-5 -19 -10.5 -37t-7.5 -25t-3 -15t1 -14.5
t9.5 -10.5t21.5 -4h37h67h81h80h64h36q23 0 34 12t2 38q-5 13 -9.5 30.5t-9.5 34.5q-5 19 -11 39h-368zM336 498v228q0 11 2.5 23t10 21.5t20.5 15.5t34 6h188q31 0 51.5 -14.5t20.5 -52.5v-227h-327z" />
    <glyph glyph-name="qrcode" unicode="&#xe606;" horiz-adv-x="1000" 
d="M116 827h338q10 -1 16 -7.5t8.5 -20t3 -22.5t0 -29t-0.5 -25v-187q0 -8 0.5 -25t0 -26.5t-2 -21.5t-6 -19t-12.5 -10.5t-23.5 -4t-37 0.5t-26.5 1h-180q-7 0 -25.5 -1t-28 -0.5t-22.5 2.5t-20 8.5t-9 16.5v343q8 21 27 27zM162 749v-244h245v248h-244q-1 0 -1 -4z
M570 827h339q22 -9 26 -31v-334q-5 -25 -23 -30q-10 -3 -24.5 -3t-34 1t-27.5 1h-174q-7 0 -27 -1t-35 -1t-24 3t-14 10.5t-6.5 21t-2 23.5t0 28.5t0.5 25.5v175q0 9 -0.5 28.5t-0.5 30t2 23.5t8.5 20t16.5 9zM617 749v-244h244v248h-243q-1 0 -1 -4zM274 678q25 4 43 -10
t18 -38q1 -30 -24 -45t-50 -2q-18 10 -24 31t4 40t33 24zM728 678q43 8 56 -28q12 -32 -8 -56q-17 -20 -48 -15q-23 4 -33 26.5t-0.5 45t33.5 27.5zM452 -31h-335q-22 7 -28 28v342q7 20 23 25q10 3 24.5 3t34 -1t26.5 -1h174q8 0 27.5 1t34 1t25.5 -3q9 -3 14.5 -10.5
t7 -20.5t2 -23t0 -28.5t-0.5 -25.5v-181q0 -6 0.5 -26.5t0 -29.5t-3 -22.5t-9 -20t-17.5 -7.5zM162 288v-245h245v248h-244q-1 0 -1 -3zM935 334v-95q-1 -8 -1 -51v-53h-242v56q-5 2 -36.5 1.5t-38.5 -0.5q-2 -19 -1.5 -111t0.5 -112h-44q-11 3 -17.5 10t-9 20t-2.5 23.5
t0.5 30t0.5 27.5v176q0 8 -1 28t-1 35t3 24q2 6 5 10t8 6t9 3.5t12.5 2t12.5 0.5h14.5h13.5h165v-151h76q1 13 0.5 76t1.5 75q19 1 34.5 0.5t26 -8t11.5 -23.5zM279 217q28 3 45.5 -19t7.5 -50q-10 -26 -37 -30.5t-47 14t-12 50t43 35.5zM774 -31h-82v45t1 44h81v-89z
M935 58v-58q-4 -23 -27 -31h-58v45t1 44h84v0z" />
    <glyph glyph-name="ticket" unicode="&#xe609;" 
d="M722 733h-585v-585h53v-53h-106v691h691v-106h-53v53zM722 95h-319v53h319v-53zM669 254h-266v53h266v-53zM616 414h-213v53h213v-53zM882 573h-585v-585h585v585zM243 -65v692h692v-692h-692z" />
    <glyph glyph-name="feedback-bg" unicode="&#xe625;" 
d="M512 832q-91 0 -174 -35.5t-143 -95.5t-95.5 -143t-35.5 -174t35.5 -174t95.5 -143t143 -95.5t174 -35.5t174 35.5t143 95.5t95.5 143t35.5 174t-35.5 174t-95.5 143t-143 95.5t-174 35.5zM736 272q0 -40 -28 -68t-68 -28h-64l-64 -64l-64 64h-64q-40 0 -68 28t-28 68
v224q0 40 28 68t68 28h256q40 0 68 -28t28 -68v-224zM640 560h-256q-26 0 -45 -19t-19 -45v-224q0 -26 19 -45t45 -19h64q13 0 23 -9l41 -42l41 42q10 9 23 9h64q26 0 45 19t19 45v224q0 26 -19 45t-45 19zM416 352q-13 0 -22.5 9.5t-9.5 22.5t9.5 22.5t22.5 9.5t22.5 -9.5
t9.5 -22.5t-9.5 -22.5t-22.5 -9.5zM512 352q-13 0 -22.5 9.5t-9.5 22.5t9.5 22.5t22.5 9.5t22.5 -9.5t9.5 -22.5t-9.5 -22.5t-22.5 -9.5zM608 352q-13 0 -22.5 9.5t-9.5 22.5t9.5 22.5t22.5 9.5t22.5 -9.5t9.5 -22.5t-9.5 -22.5t-22.5 -9.5z" />
    <glyph glyph-name="activity" unicode="&#xe604;" 
d="M489 300q7 -6 16 -6t16 6q10 8 25.5 22t50.5 52.5t62 77t49 91t22 100.5q0 93 -66 159t-159 66t-159 -66t-66 -159q0 -48 22 -100.5t49 -91t62 -77t50.5 -52.5t25.5 -22zM505 818q72 0 123.5 -51.5t51.5 -123.5q0 -42 -20 -89t-51.5 -87.5t-55.5 -66.5t-48 -48
q-24 22 -48 48t-55.5 66.5t-51.5 87.5t-20 89q0 72 51.5 123.5t123.5 51.5zM966 615q-13 7 -26 -1l-125 -75q-8 -6 -10 -16t3.5 -18.5t15.5 -10.5t19 3l86 49v-436l-274 -137l-313 168q-12 6 -24 0l-237 -130v444l114 67q8 6 10 16t-3.5 19t-15.5 11t-19 -4l-125 -75
q-11 -7 -11 -21v-499q0 -14 12.5 -21t24.5 -1l262 144l313 -169q5 -2 12 -2q6 0 11 2l299 150q14 7 14 22v499q0 15 -13 22z" />
    <glyph glyph-name="date" unicode="&#xe605;" 
d="M514.5 -6q-80.5 0 -154.5 31q-71 30 -125.5 84.5t-84.5 125.5q-31 74 -31 154.5t31 153.5q30 71 84.5 126t125.5 85q74 31 154.5 31t154.5 -31q71 -30 125.5 -85t84.5 -126q31 -73 31 -153.5t-31 -154.5q-30 -71 -84.5 -125.5t-125.5 -84.5q-74 -31 -154.5 -31z
M514.5 754q-73.5 0 -140 -27.5t-118 -79t-79.5 -118.5t-28 -140t28 -139.5t79.5 -118.5t118 -79.5t140 -27.5t140 27.5t118 79.5t79.5 118.5t28 139.5t-28 140t-79.5 118.5t-118 79t-140 27.5zM670.5 218q-6.5 0 -10.5 4l-156 156q-5 5 -5 11v285q0 6 4.5 10.5t11 4.5
t11 -4.5t4.5 -10.5v-278l152 -152q11 -11 0 -22q-5 -4 -11.5 -4z" />
    <glyph glyph-name="setting" unicode="&#xe60a;" 
d="M514 -82q-56 0 -91 15q-11 5 -11 16q-1 7 -1 22l-3 42q0 8 -2 10q-7 3 -23 8q-15 5 -22 9q-5 2 -13 6q-9 5 -13 6q-6 2 -22 -14l-8 -8l-29 -25q-10 -9 -22 -2q-26 16 -48.5 35.5t-35.5 34t-23 30t-13 21t-5 9.5q-4 11 4 19l27 31q3 2 7 7q8 9 12 13q1 4 -3 13q-1 3 -4 10
q-5 10 -7.5 15.5t-5.5 16.5q-6 22 -11 23q-16 5 -50 6q-14 0 -22 1q-13 1 -16 14q-8 30 -10 59.5t-1 49t5 37.5t6 24t3 10q5 11 16 11l75 4q12 38 33 73l-52 59q-9 10 -2 21q16 27 35.5 49.5t34 35.5t30 23t21.5 13t9 4q11 5 19 -3l60 -54q31 16 66 26l4 81q0 12 11 16
q3 2 9.5 4t24.5 5.5t37.5 5t49 -1t59.5 -9.5q13 -3 14 -17l5 -85q35 -11 68 -28l62 57q9 8 20 3q3 -1 9 -4t21.5 -13t30 -23t34 -35.5t35.5 -49.5q6 -11 -2 -21l-58 -65q18 -32 29 -67l85 -4q11 0 16 -11q1 -4 3 -10t6 -24t5 -37.5t-1 -49t-10 -59.5q-3 -13 -17 -14l-83 -6
q-10 -36 -27 -70l54 -60q8 -8 3.5 -18.5t-14.5 -26.5q-4 -6 -11.5 -7.5t-13.5 2.5t-8 11.5t3 13.5l6 10l-55 60q-9 10 -3 22q23 39 34 85q3 13 16 14l84 5q15 74 -2 134l-85 4q-13 1 -17 14q-12 43 -35 82q-7 11 2 21l57 65q-41 63 -95 93l-64 -57q-9 -9 -21 -2
q-39 22 -83 34q-12 3 -13 17l-6 84q-73 16 -134 -1l-4 -82q0 -13 -13 -17q-44 -11 -82 -32q-12 -6 -21 3l-60 53q-54 -30 -95 -93l51 -58q9 -11 2 -22q-26 -42 -39 -89q-4 -12 -17 -13l-75 -4q-17 -60 -2 -133q3 0 7 -1q39 -1 59 -7q12 -3 20 -12.5t10.5 -16.5t5.5 -19
q3 -9 4 -13l7 -14q3 -7 5 -10q13 -32 -3 -51q-4 -5 -13 -15q-4 -5 -7 -7l-19 -21q31 -54 94 -95l18 16q3 2 7 6q33 33 60 23q7 -3 18 -9q7 -4 10 -5q6 -3 19 -7q19 -6 28 -11q21 -11 23 -40q1 -14 2 -43q0 -6 1 -9q60 -16 133 -1l5 77q1 13 14 16q49 13 92 40q12 8 22 -1
l59 -52q2 1 3 2q34 25 99 26v0q8 0 13 -5.5t5.5 -13t-5 -13t-12.5 -5.5q-23 0 -43 -5t-26.5 -8.5t-8.5 -5.5h-1q-8 -6 -17 -11q-11 -7 -21 2l-59 52q-37 -21 -78 -33l-5 -78q-1 -13 -14 -16q-45 -12 -89 -12zM517.5 159q-94.5 0 -161.5 67t-67 161.5t67 161t161.5 66.5
t161.5 -66.5t67 -161t-67 -161.5t-161.5 -67zM517.5 579q-79.5 0 -135.5 -56.5t-56 -135.5t56 -135t135.5 -56t135.5 56t56 135t-56 135.5t-135.5 56.5z" />
    <glyph glyph-name="me" unicode="&#xe617;" 
d="M519 -64q-65 0 -116 2t-105.5 7t-94 14.5t-72 23.5t-49 36t-16.5 50q0 68 94 134.5t227 91.5q19 5 25 26q6 22 -12 42l-2 2q-43 42 -67.5 105.5t-24.5 131.5q0 104 60 171.5t152.5 67.5t152.5 -67.5t60 -171.5q0 -69 -25.5 -133.5t-69.5 -107.5q-18 -18 -11 -40
q6 -21 26 -26q132 -25 226 -91.5t94 -134.5q0 -32 -22 -56t-59 -38.5t-96 -23t-124 -12t-151 -3.5v0zM440 395q36 -40 22 -89q-7 -23 -24.5 -39.5t-40.5 -21.5q-121 -24 -200 -78.5t-79 -97.5q0 -81 400.5 -81t400.5 81q0 43 -79 97.5t-200 78.5q-24 5 -41 21.5t-24 39.5
q-15 51 24 92q37 35 58.5 90.5t21.5 113.5q0 82 -45 134.5t-115.5 52.5t-115.5 -52.5t-45 -134.5q0 -58 21.5 -113t57.5 -90q2 -2 3 -4z" />
    <glyph glyph-name="complete-resume" unicode="&#xe60e;" 
d="M762 -63h-643q-23 0 -39 16.5t-16 39.5v699q0 23 16 39.5t39 16.5h448l1 -1l-56 -55h-393v-699h643v356l56 54v-410q0 -23 -16.5 -39.5t-39.5 -16.5v0zM917 618q-10 -10 -70.5 -70t-126 -125t-126 -124.5t-63.5 -62.5q-4 -4 -10 -6q-12 -3 -61.5 -19t-93 -30t-44.5 -14
q-4 -2 -8 -2q-9 0 -16 7q-10 10 -6 24q47 153 61 204q1 6 6 10l383 383q40 40 90 40q45 0 83 -37q43 -41 44 -87q0 -47 -42 -91v0zM876 756q-22 21 -44 21q-27 0 -50 -23q-24 -24 -378 -377q-9 -34 -41 -138q97 31 134 43l18 17q337 333 361 357q27 28 27 52q-1 22 -27 48v0
z" />
    <glyph glyph-name="quick-money" unicode="&#xe60f;" 
d="M653 467h-39l-12 -128h70l6 109q0 19 -25 19zM896 896h-768q-53 0 -90.5 -37.5t-37.5 -90.5v-768q0 -53 37.5 -90.5t90.5 -37.5h768q53 0 90.5 37.5t37.5 90.5v768q0 53 -37.5 90.5t-90.5 37.5zM250 96l19 198h-90q-24 0 -36.5 14t-8.5 38l7 64q0 51 13 102
q2 21 7.5 40.5t20 45t36 43.5t60 31t87.5 13h211v-7q0 -12 -19 -12h-173q-127 0 -147 -160q-6 -23 -9 -47t-4 -37v-12l-6 -58v-3.5t3.5 -6t8.5 -3.5h39l19 250h77q5 0 9 -4t4 -9l-39 -486h-89v6zM806 96q-16 0 -35.5 4.5t-41.5 15t-39.5 32t-23.5 50.5q-3 15 -3 34t1 31
l2 12h96l-7 -57q-2 -23 3 -40t16.5 -27.5t16.5 -14t15 -8.5v-32zM890 294h-301q-31 -74 -108 -136t-116 -62v32q32 16 71 64t57 102h-115l6 45h122l12 128h-121l6 51h122l6 77h83q5 0 9 -4t4 -9l-6 -64h109q23 0 37 -12.5t14 -31.5l-13 -135h122v-45z" />
    <glyph glyph-name="authentication" unicode="&#xe61d;" 
d="M808 84q-40 -37 -109.5 -74.5t-106.5 -52t-65 -24.5q-5 1 -6 1q-30 10 -67 25t-105.5 51.5t-106.5 73.5q-78 72 -98 151v0v69v407l1 1q1 13 15 14v0.5v0.5q19 -1 23 -1q115 0 205 28.5t122 72.5h0.5h0.5q5 8 14 8q8 0 13 -8l0.5 0.5l0.5 0.5q32 -45 122.5 -73.5
t204.5 -28.5h6.5t7.5 0.5t7 0.5v-0.5v-0.5h0.5h0.5q7 0 11.5 -4.5t4.5 -11.5v0v-1.5v-0.5v0v-474q-20 -78 -96 -150zM706 555l-181 -212l-135 81l-51 -67l186 -141l244 283z" />
    <glyph glyph-name="service" unicode="&#xe759;" 
d="M275 813q-83 0 -142 -59t-59 -142t59 -142t142 -59h201v201q0 83 -59 142t-142 59v0zM414 473h-139q-57 0 -98 41t-41 98.5t41 98t98.5 40.5t98 -40.5t40.5 -98.5v-139zM940 612q0 83 -59 142t-142 59t-142 -59t-59 -142v-201h201q83 0 142 59t59 142v0zM600 612
q0 58 40.5 98.5t98 40.5t98.5 -40.5t41 -98t-41 -98.5t-98 -41h-139v139zM74 149q0 -84 59 -142.5t142 -58.5t142 58.5t59 142.5v200h-201q-83 0 -142 -58.5t-59 -141.5v0zM414 149q0 -58 -40.5 -99t-98 -41t-98.5 41t-41 98.5t41 98.5t98 41h139v-139zM739 349h-201v-200
q0 -84 59 -142.5t142 -58.5t142 58.5t59 142t-59 142t-142 58.5v0zM739 9q-58 0 -98.5 41t-40.5 99v139h139q57 0 98 -41t41 -98.5t-41 -98.5t-98 -41v0zM739 9z" />
    <glyph glyph-name="recruit" unicode="&#xe61f;" 
d="M855 807h-78q-10 0 -16.5 -7t-6.5 -16q0 -10 7 -17t17 -7v0h1h53q29 0 49.5 -20.5t20.5 -49.5v-675q0 -29 -20.5 -49.5t-49.5 -20.5h-640q-29 0 -49.5 20.5t-20.5 49.5v675q0 29 20.5 49.5t49.5 20.5h42h0.5h0.5h0.5h0.5v0v0q10 1 16 7.5t6 16t-6 16t-16 7.5v0h-67
q-39 0 -66.5 -27.5t-27.5 -65.5v-722q0 -39 27.5 -66t66.5 -27h686q39 0 66.5 27t27.5 66v722q0 38 -27.5 65.5t-66.5 27.5zM620 784q0 -10 -6.5 -17t-16.5 -7h-175q-9 0 -16 7t-7 17v0q0 9 7 16t16 7h175q10 0 16.5 -7t6.5 -16v0zM354 700q0 -10 -7 -16.5t-16 -6.5v0
q-10 0 -17 6.5t-7 16.5v140q0 9 7 16t17 7v0q9 0 16 -7t7 -16v-140zM709 700q0 -10 -6.5 -16.5t-16.5 -6.5v0q-10 0 -16.5 6.5t-6.5 16.5v140q0 9 6.5 16t16.5 7v0q10 0 16.5 -7t6.5 -16v-140zM639 334q41 48 41 110q0 71 -50 121t-120.5 50t-120.5 -50t-50 -121
q0 -62 41 -110q-87 -38 -140 -118t-53 -178v-0.5v-0.5h36v0.5v0.5q0 91 52 164.5t134 104.5q45 -33 100.5 -33t100.5 33q83 -31 134.5 -104.5t51.5 -164.5v-0.5v-0.5h37v0.5v0.5q0 98 -53.5 178t-140.5 118zM380 444.5q0 53.5 38 91.5t92 38t92 -38t38 -91.5t-38 -92
t-92 -38.5t-92 38.5t-38 92z" />
    <glyph glyph-name="location" unicode="&#xe607;" 
d="M512 -128l-19 19q-9 6 -49 44t-99.5 104.5t-114.5 139.5t-94.5 155.5t-39.5 145.5q0 113 55.5 209t151.5 151.5t209 55.5q173 0 294.5 -121.5t121.5 -294.5q0 -63 -39.5 -145.5t-94.5 -155.5t-114.5 -139.5t-99.5 -104.5t-49 -44zM512 832q-144 0 -248 -104t-104 -248
q0 -54 37.5 -128.5t96.5 -149t113 -133.5t105 -107q50 46 105 107t113.5 135.5t96 149t37.5 126.5q0 144 -104 248t-248 104v0zM512 326q-72 0 -122.5 50.5t-50.5 122.5t50.5 122.5t122.5 50.5t122.5 -50.5t50.5 -122.5t-50.5 -122.5t-122.5 -50.5v0zM512 608q-43 0 -76 -33
t-33 -76t33 -76t76 -33t76 33t33 76t-33 76t-76 33v0zM512 608z" />
    <glyph glyph-name="arrow-bottom" unicode="&#xe600;" 
d="M512 145l-431 432l34 34l431 -431zM942 577l-431 -432l-34 35l431 431z" />
    <glyph glyph-name="arrow-top" unicode="&#xe601;" 
d="M932 207l-405 384q-6 6 -15 6t-15 -6l-405 -384q-7 -6 -7 -15q0 -10 6 -15.5t16 -5.5q8 0 15 6l390 369l390 -369q7 -6 15 -6q10 0 16 5.5t6 15.5q0 9 -7 15z" />
    <glyph glyph-name="arrow-left" unicode="&#xe602;" 
d="M350 384l369 390q6 7 6 15q0 10 -5.5 16t-15.5 6q-9 0 -15 -7l-384 -405q-6 -6 -6 -15t6 -15l384 -405q6 -7 15 -7q10 0 15.5 6t5.5 16q0 8 -6 15z" />
    <glyph glyph-name="arrow-right" unicode="&#xe603;" 
d="M719 399l-384 405q-6 7 -15 7q-10 0 -15.5 -6t-5.5 -16q0 -8 6 -15l369 -390l-369 -390q-6 -7 -6 -15q0 -10 5.5 -16t15.5 -6q9 0 15 7l384 405q6 6 6 15t-6 15z" />
    <glyph glyph-name="edit" unicode="&#xe61c;" 
d="M880 652l-100 99q-23 24 -56 24t-56 -24l-469 -470l-77 -288l289 78l469 468q23 24 23 56.5t-23 56.5zM258 77l-52 53l25 95l123 -122zM398 122l-146 147l345 347l147 -148zM848 572l-46 -46l-147 147l46 46q9 10 23.5 10t23.5 -10l100 -100q10 -10 10 -23.5t-10 -23.5z
" />
    <glyph glyph-name="professional-skills" unicode="&#xe614;" 
d="M913 592q-40 33 -97 40q7 46 13 91l5 35h-636l5 -35q6 -38 14 -91q-63 -4 -106 -40q-53 -46 -53 -119t50 -131q24 -28 55 -44q34 -17 71 -17q21 0 42 5q9 -25 23 -45q24 -36 73 -68q52 -34 114 -41v-58h-98q-13 0 -22 -9t-9 -21.5t9 -21.5t22 -9h257q13 0 22 9t9 21.5
t-9 21.5t-22 9h-98v58q62 7 114 41q48 32 73 68q13 19 22 43q17 -3 34 -3q37 0 71 17q31 16 55 44q50 58 50 131t-53 119zM234 342q-47 0 -81 42t-34 89q0 46 31 71t76 28q23 -157 32 -215l2 -12q-13 -3 -26 -3zM627 224q-50 -32 -109 -32h-2v0v0h-1q-60 0 -109 32
q-40 26 -59.5 55.5t-28.5 87.5q-12 81 -49 329h494q-36 -248 -49 -329q-9 -58 -28.5 -87.5t-58.5 -55.5zM790 342q-9 0 -17 2q1 6 2 13q9 58 32 214q42 -5 70 -29.5t28 -68.5q0 -47 -34 -89t-81 -42z" />
    <glyph glyph-name="idcard" unicode="&#xe608;" horiz-adv-x="1522" 
d="M809 562h410q13 0 22 -9.5t9 -21.5v0q0 -14 -9.5 -22.5t-21.5 -8.5h-410q-13 0 -22 9.5t-9 21.5v0q-2 12 7.5 21.5t23.5 9.5zM809 415h410q13 0 22 -9.5t9 -21.5v0q0 -14 -9.5 -22.5t-21.5 -8.5h-410q-13 0 -22 9.5t-9 21.5v0q-2 14 7.5 22.5t23.5 8.5zM809 272h410
q13 0 22 -9.5t9 -22.5v0q0 -13 -9.5 -22t-21.5 -9h-410q-13 0 -22 9.5t-9 21.5v0q-2 12 7.5 22t23.5 10zM1303 834h-1087q-52 0 -88.5 -38.5t-36.5 -92.5v-638q0 -54 36.5 -92.5t88.5 -38.5h1087q52 0 88.5 38.5t36.5 92.5v638q0 54 -36.5 92.5t-88.5 38.5zM216 762h1087
q23 0 39.5 -18t16.5 -41v-638q0 -25 -16 -42t-40 -17h-1087q-23 0 -40 18t-17 41v638q0 25 16.5 42t40.5 17zM659 262q-28 32 -87 41q-6 0 -6 3q13 13 28 50q6 12 6 15v0q15 10 25 41t-3 53q6 19 6 31q5 23 0 41q-5 33 -31 69q-23 28 -50 28v0q-13 17 -44 22q-15 3 -40 3
q-46 0 -79 -22q-28 -24 -43 -65v-4q-10 -28 -10 -62q0 -19 7 -44q-9 -23 0 -50q11 -28 25 -37v0q0 -3 6 -16q14 -36 28 -50q-3 0 -6 -3q-53 -7 -91 -41q-34 -34 -34 -84q0 -12 7.5 -20t17.5 -8q11 0 18 8t7 20q0 28 18 47q12 11 28 18t29 7q18 0 37 18q16 16 16 47
q0 16 -13 22q-7 5 -22 35q-5 20 -18 34v0v0q-7 6 -13 19q-2 1 -1 6t1 6l6 13q0 12 -3 15q2 5 2 10.5t-1 13.5t-1 14q0 19 7 44v3q10 25 28 34q21 16 50 16h31q12 0 12 -7v0q4 -6 16 -12q6 -3 22 -3q3 0 12 -10q19 -25 19 -40v-25q0 -6 -6 -31q-5 -17 6 -29v0q3 0 1.5 -4.5
l-1.5 -4.5q-6 -12 -12 -19v0q-6 -5 -11.5 -17t-7.5 -14v-3q-7 -27 -22 -34q-12 -7 -12 -22q-4 -22 15 -50q13 -13 38 -19q12 0 28.5 -7t27.5 -18q19 -19 19 -47q0 -11 7.5 -19.5t17.5 -8.5q11 0 18 8t7 20q2 18 -6 39t-26 36v0z" />
    <glyph glyph-name="tao-tu" unicode="&#xe610;" 
d="M557 546h-117q-18 -20 -41 -41h117q20 18 41 41zM407 404h73q5 27 7 59h-80v-59zM626 463h-93q-1 -28 -7 -59h100v59zM753 664q-74 0 -138 34t-104 93q-40 -59 -103.5 -93t-138.5 -34q-61 0 -117 24v-185q0 -163 93.5 -303.5t254.5 -222.5l11 -5v0v0v0v0l11 5
q162 82 255.5 222.5t93.5 303.5v185q-56 -24 -118 -24zM694 236q-11 -12 -34 -12h-87q-47 0 -47 53v85h-12q-3 -8 -9 -22q-33 -75 -161 -124l-29 35q112 42 146 102q1 1 2.5 4.5t1.5 4.5h-102v115q-4 -3 -11.5 -8t-8.5 -6l-29 35q74 43 130 125l46 -11q-14 -20 -17 -25h143
v-34q-19 -25 -43 -48h97v-143h-99v-76q0 -18 16 -18h64q8 0 12 8q4 10 5 52l43 -14q-5 -65 -17 -78z" />
    <glyph glyph-name="badge" unicode="&#xe60b;" 
d="M827 514l21 72q7 22 -10 37l-54 52l-17 73q-5 22 -28 27l-72 18l-51 54q-11 12 -27 12q-5 0 -10 -2l-72 -21l-71 21q-5 2 -10 2q-16 0 -27 -12l-51 -54l-73 -18q-22 -5 -27 -27l-17 -73l-54 -52q-17 -15 -10 -37l21 -72l-21 -72q-7 -22 10 -38l54 -51l17 -73
q5 -22 27 -27l35 -9v-346l189 74l205 -74v346l35 9q22 5 28 27l17 73l54 51q17 16 10 38zM655 -28l-156 63l-139 -63v250l39 -41q11 -12 27 -12q5 0 10 2l71 21l72 -21q5 -2 10 -2q16 0 27 12l39 41v-250zM799 452q6 -18 -8 -32l-47 -44l-14 -62q-5 -20 -24 -24l-62 -15
l-44 -47q-9 -10 -23 -10q-4 0 -9 2l-61 18l-61 -18q-4 -2 -9 -2q-13 0 -23 10l-44 47l-62 15q-19 4 -23 24l-15 62l-46 44q-14 14 -9 32l18 62l-18 61q-5 19 9 33l46 44l15 62q4 19 23 24l62 15l44 46q10 10 23 10q5 0 9 -1l61 -18l61 18q5 1 9 1q14 0 23 -10l44 -46l62 -15
q19 -5 24 -24l14 -62l47 -44q14 -14 8 -33l-18 -61zM507.5 711q-81.5 0 -139.5 -58t-58 -139.5t58 -139t139.5 -57.5t139 57.5t57.5 139t-57.5 139.5t-139 58zM507 366q-61 0 -104 43.5t-43 104.5t43 104.5t104 43.5t104.5 -43.5t43.5 -104.5t-43.5 -104.5t-104.5 -43.5z
" />
    <glyph glyph-name="preview" unicode="&#xe616;" 
d="M512 597q-62 0 -145 -40t-141 -90.5t-58 -82.5t58 -82.5t141 -90.5t145 -40t145 40t141 90.5t58 82.5t-58 82.5t-141 90.5t-145 40zM512 235q-62 0 -106 43.5t-44 105.5t44 105.5t106 43.5t106 -43.5t44 -105.5t-44 -105.5t-106 -43.5zM512 490q-45 0 -76 -31t-31 -75
t31 -75t76 -31t76 31t31 75t-31 75t-76 31z" />
    <glyph glyph-name="filter" unicode="&#xe656;" 
d="M867 402h-499q-13 0 -23 -9.5t-10 -23t10 -23t23 -9.5h499q14 0 23.5 9.5t9.5 23t-9.5 23t-23.5 9.5zM368 641h499q14 0 23.5 9.5t9.5 23t-9.5 23t-23.5 9.5h-499q-13 0 -23 -9.5t-10 -23t10 -23t23 -9.5zM867 98h-499q-13 0 -23 -9.5t-10 -23t10 -23t23 -9.5h499
q14 0 23.5 9.5t9.5 23t-9.5 23t-23.5 9.5zM238 706h-87q-14 0 -23.5 -9.5t-9.5 -23t9.5 -23t23.5 -9.5h87q13 0 22.5 9.5t9.5 23t-9.5 23t-22.5 9.5zM238 402h-87q-14 0 -23.5 -9.5t-9.5 -23t9.5 -23t23.5 -9.5h87q13 0 22.5 9.5t9.5 23t-9.5 23t-22.5 9.5zM238 98h-87
q-14 0 -23.5 -9.5t-9.5 -23t9.5 -23t23.5 -9.5h87q13 0 22.5 9.5t9.5 23t-9.5 23t-22.5 9.5z" />
    <glyph glyph-name="required" unicode="&#xe74c;" 
d="M576 449q78 36 149 72q72 37 114 54q43 16 67 16q43 0 73 -28q31 -28 31 -71q0 -24 -15 -50t-32 -33q-157 -62 -343 -90q29 -26 83 -83q51 -53 52 -55q20 -27 51 -63q33 -38 45 -59q13 -21 13 -51q0 -39 -29 -68t-75 -29q-45 0 -103 72q-58 71 -148 256
q-91 -164 -123 -220q-32 -53 -61 -80q-29 -28 -66 -28q-45 0 -75 31q-29 31 -29 66q0 33 12 49q113 154 232 262q-100 16 -181 36q-83 20 -170 56q-14 8 -28 34q-14 25 -14 47q0 43 31 71t71 28q29 0 72 -17q46 -19 111 -51q62 -31 153 -74q-16 76 -26 174t-10 135
q0 44 28 77q28 32 73 32q43 0 72 -32q28 -32 28 -85q0 -13 -4 -58q-3 -28 -12 -104q-9 -65 -17 -139z" />
    <glyph glyph-name="right" unicode="&#xe74d;" 
d="M404 97q-15 -15 -35.5 -15t-35.5 15l-216 215q-14 15 -14 36t14 35l1 1q15 15 37 16.5t39 -11.5l135 -102q16 -13 39 -12t38 15l427 383q16 14 37 13t36 -15l1 -1q14 -14 14 -35t-14 -36z" />
    <glyph glyph-name="resume" unicode="&#xe60c;" horiz-adv-x="1083" 
d="M770 -61h-552q-51 0 -86.5 36t-35.5 87v610q0 51 36 86q35 35 86 35q8 0 13.5 -6t5.5 -14t-5.5 -14t-13.5 -6q-35 0 -58.5 -23.5t-23.5 -57.5v-610q0 -35 24 -59.5t58 -24.5h552q34 0 58 24.5t24 57.5v510q0 8 5.5 14t14 6t14 -6t5.5 -14v-510q0 -50 -35.5 -85.5
t-85.5 -35.5v0zM872 551h-654q-50 0 -85.5 35t-36.5 86v0v1v1q1 50 36 84q35 35 86 35h654q8 0 13.5 -6t5.5 -14t-5.5 -14t-13.5 -6h-654q-35 0 -58.5 -23t-23.5 -57t24 -58.5t58 -24.5h654q8 0 13.5 -6t5.5 -14t-5.5 -13.5t-13.5 -5.5zM866 652h-657q-8 0 -14 5.5t-6 14
t6 14t14 5.5h657q8 0 14 -5.5t6 -14t-6 -14t-14 -5.5zM493.5 229q-54.5 0 -93 38.5t-38.5 93t38.5 93.5t93 39t93 -39t38.5 -93.5t-38.5 -93t-93 -38.5zM493.5 453q-38.5 0 -65.5 -27t-27 -65t27 -65t65.5 -27t65.5 27t27 65t-27 65t-65.5 27zM667 56q-8 0 -14 6t-6 14
q0 63 -45 108t-108.5 45t-108.5 -45t-45 -108q0 -8 -6 -14t-14 -6t-13.5 6t-5.5 14q0 80 56.5 136.5t136.5 56.5t136.5 -56.5t56.5 -136.5q0 -9 -6 -14.5t-14 -5.5z" />
    <glyph glyph-name="info" unicode="&#xe7cf;" 
d="M512 834q-188 0 -319 -131t-131 -319t131 -319t319 -131t319 131t131 319t-131 319t-319 131v0zM512 63q-28 0 -46 19.5t-18 44.5q0 28 19.5 46t44.5 18q24 0 44 -20t20 -44q0 -29 -17.5 -46.5t-46.5 -17.5v0zM538 281q-3 -12 -8.5 -18t-9 -7t-8.5 -1t-8.5 1t-9 7
t-8.5 18q-6 41 -35 152t-29 131q0 39 25.5 64.5t64.5 25.5t64.5 -25.5t25.5 -64.5q0 -11 -4.5 -35.5t-13 -60t-15.5 -64.5t-17.5 -69t-13.5 -54v0z" />
    <glyph glyph-name="dropdown" unicode="&#xe696;" 
d="M942 618.5q17 -16.5 17 -39t-17 -39.5l-391 -391q-16 -16 -39 -16t-39 16l-391 391q-17 17 -17 39.5t16.5 39t39.5 16.5h782q22 0 39 -16.5z" />
    <glyph glyph-name="money-bag" unicode="&#xe615;" 
d="M607 475q-2 2 -11.5 6.5t-17.5 8.5l-8 4q20 20 31 34q13 17 16 29q3 11 1 18.5t-10 14.5q-17 14 -50 0q-2 -1 -3 1q-18 17 -43 17t-43 -17q-1 0 -7 2.5t-14.5 4.5t-12.5 1q-31 -6 -27 -35q3 -23 24 -48q1 -1 7 -6.5t11 -10t4 -4.5q-55 -26 -98 -77.5t-46 -106.5
q-4 -45 3 -70q6 -25 27.5 -39t48.5 -14h123h123q21 0 40 9t29 25q8 11 12 38q5 32 -11 91q-10 39 -32 65t-66 59zM578.5 286q-3.5 -3 -9.5 -3h-41v-12q0 -6 -4.5 -11t-11.5 -5t-11.5 3.5t-5.5 12.5v12h-40q-6 0 -9.5 3.5t-3.5 8.5q0 6 4 9.5t9 3.5h40v22h-40q-6 0 -9.5 3.5
t-3.5 8.5t4 9.5t9 4.5h40l1 13q-11 12 -20 22q-7 9 -14 16l-9 9q-2 4 -4.5 10.5t2.5 13.5q5 6 12.5 3t12.5 -7q2 -3 8 -10l28 -30q10 10 18 19q7 6 14 12.5t10 9.5q5 5 11.5 5t10.5 -6q8 -9 -6 -21q-3 -4 -10 -11.5t-14 -15.5q-8 -9 -18 -19v-12h38q8 0 12 -4t4 -9
q0 -6 -3.5 -10t-12.5 -4h-38v-21h37q17 0 17 -14q0 -6 -3.5 -9zM512 830q-91 0 -173.5 -35.5t-142 -95t-95 -142t-35.5 -173.5t35.5 -173.5t95 -142t142 -95t173.5 -35.5t173.5 35.5t142 95t95 142t35.5 173.5t-35.5 173.5t-95 142t-142 95t-173.5 35.5zM741 244
q-5 -25 -16 -41q-26 -37 -70 -37h-143h-142q-30 0 -53 18t-30 46q-9 33 -6 71q5 65 42 118t96 79l3 1q-10 10 -10 11q-23 24 -27 58q-3 18 8.5 32t29.5 17q19 4 35 -3q2 -1 4 0q21 19 50 19t50 -19q1 -2 4 -1q33 14 59 -7q19 -16 14 -46q-3 -12 -5 -17q-7 -20 -29 -40l-1 -1
l-2 -2v0q20 -10 20 -11q87 -49 114 -144q13 -48 5 -101z" />
    <glyph glyph-name="feedback" unicode="&#xe66c;" 
d="M817 159h-226l-132 -99q-31 -23 -69.5 -17.5t-61.5 36.5l-59 80h-62q-39 0 -66.5 27.5t-27.5 65.5v376q0 39 27.5 66.5t66.5 27.5h610q39 0 66.5 -27.5t27.5 -66.5v-376q0 -38 -27.5 -65.5t-66.5 -27.5zM864 619q0 23 -16.5 39.5t-39.5 16.5h-592q-23 0 -39.5 -16.5
t-16.5 -39.5v-357q0 -23 16.5 -39.5t39.5 -16.5h76l68 -91q14 -19 37 -22.5t42 10.5l137 103h232q23 0 39.5 16.5t16.5 39.5v357zM695.5 398q-19.5 0 -33.5 14t-14 33.5t14 33t33.5 13.5t33 -13.5t13.5 -33t-13.5 -33.5t-33 -14zM512 398q-19 0 -33 14t-14 33.5t14 33
t33 13.5t33 -13.5t14 -33t-14 -33.5t-33 -14zM328.5 398q-19.5 0 -33 14t-13.5 33.5t13.5 33t33 13.5t33.5 -13.5t14 -33t-14 -33.5t-33.5 -14z" />
    <glyph glyph-name="pocket" unicode="&#xe60d;" 
d="M832 594v58q0 31 -22.5 53.5t-53.5 22.5h-146l-16 45q-3 7 -10 10.5t-14 0.5l-78 -56h-310q-31 0 -53.5 -22.5t-22.5 -53.5v-574q0 -39 28 -67t68 -28h611q40 0 68 28t28 67v440q0 32 -22.5 54t-54.5 22zM756 690q16 0 27 -11t11 -27v-58h-123l-47 96h132zM497 690v0
l42 21l32 15l14 -39l46 -93h-345zM182 690v0h242l-229 -95v-1h-13q-16 0 -27 11.5t-11 27.5q0 18 12 37.5t26 19.5zM870 250h-76q-16 0 -27 11.5t-11 27.5t11 27t27 11h76v-77zM870 365h-76q-31 0 -53.5 -22.5t-22.5 -53.5q0 -32 22.5 -54.5t53.5 -22.5h76v-133
q0 -24 -16.5 -40.5t-40.5 -16.5h-611q-24 0 -41 16.5t-17 40.5v488q19 -11 39 -11v0h650q15 0 26.5 -11t11.5 -27v-153h-1zM794 308h39v-39h-39v39z" />
    <glyph glyph-name="gift" unicode="&#xe750;" 
d="M539 425v152q-14 1 -22 3v0h-1v0v0v0h1v0h-1v0v0q0 -1 -1 -1q-18 -2 -30 -3v-151h-312v121q0 14 10 24t24 10h143q-67 14 -68 55q-1 31 28 60t69.5 20t72 -35.5t63.5 -65.5q20 26 37 44t46 36t59 22q37 5 66 -23.5t24 -57.5q-6 -41 -71 -55h141q14 0 24 -10t10 -24v-121
h-312zM386 683q-37 15 -59 -21q-15 -25 -3 -38q33 -34 157 -21q-50 63 -95 80zM705 624q8 15 2.5 32t-25 27t-39.5 1q-46 -22 -94 -81q33 -2 65 -1q76 3 91 22zM488 64h-255q-13 0 -22 9t-9 22v306h286v-337v0zM822 95q0 -13 -9 -22t-22 -9h-255v337h286v-306z" />
    <glyph glyph-name="question-mark" unicode="&#xe613;" 
d="M511.5 836q-92.5 0 -177 -36t-145.5 -97t-97 -145.5t-36 -177t36 -177t97 -145.5t145.5 -97t177 -36t177 36t145.5 97t97 145.5t36 177t-36 177t-97 145.5t-145.5 97t-177 36zM508 109q-14 0 -23.5 10t-9.5 23.5t9.5 23t23.5 9.5t23.5 -9.5t9.5 -23t-9.5 -23.5t-23.5 -10
zM658 438q-16 -28 -61 -68q-31 -27 -40 -40t-13.5 -29.5t-5.5 -54.5v0v0q0 -13 -9 -21.5t-21.5 -8.5t-21 8.5t-8.5 21.5v4v8.5v6.5q0 37 10 63q8 20 25 41q12 15 44.5 43.5t42 45.5t9.5 37q0 37 -28 64.5t-70 27.5q-40 0 -66 -25q-27 -25 -35 -77q-1 -12 -10.5 -21t-22.5 -9
t-22.5 9.5t-9.5 22.5v4v0q9 72 52 109.5t113 37.5q75 0 119.5 -40.5t44.5 -98.5q0 -33 -16 -61z" />
    <glyph glyph-name="identity-confirm" unicode="&#xe611;" 
d="M575 528h328v-57h-328v57zM575 403h97v-57h-97v57zM575 650h328v-57h-328v57zM834 394q-62 0 -105 -42.5t-43 -104.5q0 -61 44 -104.5t104 -43.5q63 0 106 43t43 105q0 61 -44 104t-105 43v0v0zM832 157q-5 -5 -13.5 -5t-15.5 5l-63 63q-5 5 -5 13.5t5 13.5t13.5 5
t15.5 -5l50 -50l96 94q5 5 14 5t15 -5q5 -5 5 -13.5t-5 -13.5zM385 462q50 45 50 113q0 62 -44.5 106.5t-107 44.5t-107 -44.5t-44.5 -106.5q0 -68 51 -113q-64 -29 -103 -88.5t-39 -131.5h61q0 75 53 128t128.5 53t128.5 -53t53 -128h61q0 72 -39 131.5t-102 88.5v0z
M284 666q37 0 64 -27t27 -64.5t-27 -64t-64.5 -26.5t-64 26.5t-26.5 64t26.5 64.5t64.5 27v0z" />
    <glyph glyph-name="credit-store" unicode="&#xe612;" 
d="M616 213q13 0 22 9t9 21.5t-9 21.5t-22 9h-210q-13 0 -21.5 -9t-8.5 -21.5t8.5 -21.5t21.5 -9h210zM876 472q-1 13 -7 27l-64 143q-11 25 -34 40t-51 15h-420q-28 0 -51 -15t-34 -40l-61 -138q-12 -26 -7 -52q8 -49 44 -78.5t88 -29.5q50 0 94 32q19 13 37 1
q49 -33 100 -33t101 34q17 12 35 0q36 -23 81 -32q8 -2 17 -2v-214h-466v139q0 12 -9 21t-21.5 9t-21.5 -9t-9 -21v-149q0 -20 15 -35t36 -15h486q21 0 35.5 15t14.5 35v234q30 10 47 30q31 35 25 88v0zM757 405q-5 0 -10 -1q-4 0 -8 1q-34 7 -61 24q-23 15 -51 15t-51 -16
q-34 -24 -66.5 -24t-66.5 23q-23 16 -51 16q-30 0 -54 -18q-29 -21 -59 -21q-20 0 -35 6.5t-22 16.5t-10.5 18.5t-5.5 16.5q-1 8 3 18l61 138q9 19 30 19h420q21 0 30 -19l63 -144q2 -5 3 -8q3 -27 -10 -42q-9 -9 -24 -14l-25 -5v0z" />
    <glyph glyph-name="recommendation" unicode="&#xe61b;" 
d="M523 117q-4 0 -8 2q-80 49 -147 106q-150 127 -150 222q0 91 58 142q50 44 123 44q78 0 124 -48q45 47 123 47q73 0 123 -44q58 -50 58 -141q0 -95 -150 -222q-67 -57 -146 -106q-4 -2 -8 -2zM398 602q-27 0 -52.5 -8.5t-47.5 -26t-35.5 -48.5t-13.5 -72q0 -80 139 -198
q61 -52 135 -99q73 47 135 99q138 117 138 198q0 41 -13.5 72t-36 48t-47.5 25.5t-53 8.5q-35 0 -65 -13t-45 -36q-5 -7 -13 -7t-13 7q-15 23 -45.5 36.5t-66.5 13.5zM185 552q-4 0 -6 1l-71 28q-6 2 -8.5 8t0 12t8.5 8.5t12 0.5l70 -28q6 -2 9 -8t0 -12q-4 -10 -14 -10z
M896 273q-4 0 -6 2l-53 20q-6 2 -8.5 8t-0.5 12t8 8.5t12 0.5l53 -20q6 -3 9 -8.5t0 -11.5q-4 -11 -14 -11zM208 599q-4 0 -7 2l-32 18q-5 4 -7 10t1 11.5t9.5 7.5t11.5 -1l32 -18q6 -4 7.5 -10t-1.5 -12q-4 -8 -14 -8zM906 195q-4 0 -7 3l-87 50q-14 8 -6 21.5t21 5.5
l87 -50q14 -8 6 -22q-5 -8 -14 -8zM717 456q-10 0 -14 10q-7 14 -16.5 24.5t-18 15t-17 6t-13.5 1t-8 -1.5q-6 -2 -12 0t-8.5 8t-0.5 12t8 9q23 10 55 -2q39 -15 59 -59q3 -6 1 -12t-8 -9q-3 -2 -7 -2z" />
    <glyph glyph-name="hot-news" unicode="&#xe620;" 
d="M834 287q-6 -80 -55.5 -144t-147.5 -93q-46 -15 -51 10q-2 17 11 25q37 21 52.5 51.5t10 59.5t-17 51.5t-24.5 33.5q-13 12 -25.5 34t-17.5 39l-6 16q-29 -11 -51.5 -30.5t-34 -37.5t-19.5 -40t-10 -32.5t-3 -21.5q-1 -3 -1.5 -8.5t1.5 -20.5t7 -29t17.5 -32.5
t31.5 -32.5q18 -2 18 -19.5t-17 -19.5q-8 -1 -18 4q-90 22 -148.5 91t-58.5 157q0 2 1 11h-1v7.5t1 19t4 29.5t10.5 36.5t19 42t32 44.5t45.5 45q46 37 72.5 114t17.5 102q-7 20 12 27.5t33 -4.5q37 -29 59.5 -47.5t59 -51t59.5 -58t51 -62t44 -69t26.5 -72.5t10.5 -80v-2.5
t0.5 -7t0.5 -9.5t-0.5 -12t-0.5 -14zM792 340q-3 178 -277 392q1 0 0.5 -8.5t-3 -24.5t-6.5 -35.5t-12.5 -42.5t-20 -45.5t-30 -45t-41.5 -40.5l-13 -13l-17 -17t-15 -17.5t-15.5 -23.5t-11.5 -25t-9.5 -31.5t-2.5 -34.5q-1 -9 -1 -36q0 -33 13.5 -69.5t48.5 -74.5t85 -60
q-60 28 -60 120q5 43 19.5 78t30 54t37.5 34t31.5 19t20.5 8q14 5 23.5 6t15 0.5t10 -6.5t6 -9t4.5 -14t5 -15q5 -14 28.5 -44t31.5 -42q65 -104 -17 -180q16 7 31 15.5t36.5 25.5t37 37.5t26.5 52t11 67.5v45z" />
    <glyph glyph-name="home" unicode="&#xe621;" 
d="M863 460h-716q-29 0 -38.5 27t12.5 45l358 292q12 9 26 9t25 -9l359 -292q22 -18 12.5 -45t-38.5 -27zM140 499h730l-365 297zM772 45h-537q-16 0 -27 11t-11 27v415h613v-415q0 -16 -11 -27t-27 -11zM246 81h515q5 0 9 3.5t4 9.5v368h-541v-368q0 -6 4 -9.5t9 -3.5z
M769 585l-119 97v62q0 14 10 24t24 10h51q14 0 24 -10t10 -24v-159zM682 697l55 -45v83q0 5 -3 8t-8 3h-32q-5 0 -8.5 -3t-3.5 -8v-38zM603 45h-197v187q0 16 11.5 27.5t27.5 11.5h119q16 0 27.5 -11.5t11.5 -27.5v-187zM442 81h124v141q0 5 -3.5 8.5t-8.5 3.5h-99
q-5 0 -9 -3.5t-4 -8.5v-141z" />
    <glyph glyph-name="discover" unicode="&#xe622;" 
d="M942 497q-10 38 -52 63t-107 36q19 -23 34 -48q76 -22 87 -62q7 -23 -10 -53q-20 -34 -67 -70v1.5v2.5q0 131 -92.5 223.5t-223 92.5t-223 -92.5t-92.5 -223.5q0 -78 37 -148q-101 21 -114 68q-7 24 11 54q8 14 27 34q1 32 6 61q-103 -85 -82 -159q11 -41 59 -67t122 -36
q44 -57 109.5 -90t140.5 -33q115 0 202 74t108 185q68 45 100.5 94.5t19.5 92.5zM512 91q-113 0 -194 79h20q108 0 226 30q116 30 210 81q-28 -84 -100 -137t-162 -53zM786 334q-98 -62 -232 -96q-112 -29 -216 -29q-1 0 -28 -0.5t-27 0.5q-48 70 -48 158q0 115 81 195.5
t195.5 80.5t195.5 -80.5t81 -195.5q0 -15 -2 -33zM373.5 288q-32.5 0 -56 23.5t-23.5 56t23.5 55.5t56 23t55.5 -23t23 -55.5t-23 -56t-55.5 -23.5zM373.5 407q-16.5 0 -28 -12t-11.5 -28t11.5 -27.5t28 -11.5t28 11.5t11.5 27.5t-11.5 28t-28 12zM541.5 505
q-20.5 0 -35 14.5t-14.5 35t14.5 35t35 14.5t34.5 -14.5t14 -35t-14 -35t-34.5 -14.5zM541 564q-10 0 -10 -9.5t10 -9.5t10 9.5t-10 9.5zM649.5 328q-16.5 0 -28 11.5t-11.5 27.5t11.5 28t28 12t28 -12t11.5 -28t-11.5 -27.5t-28 -11.5z" />
    <glyph glyph-name="find-job" unicode="&#xe623;" 
d="M844 92h-592v251h30v-221h531v531h-193v31h224v-592zM773 94q-29 0 -50 21l-205 205l21 22l205 -206q12 -11 29 -11t28.5 11.5t11.5 28.5t-12 28l-196 196l22 22l196 -196q21 -21 21 -50t-21 -50t-50 -21zM409 282q-107 0 -183 76t-76 183.5t76 183.5t183 76t183 -76
t76 -183.5t-76 -183.5t-183 -76zM409.5 770q-94.5 0 -161.5 -67t-67 -161.5t67 -161.5t161.5 -67t161.5 67t67 161.5t-67 161.5t-161.5 67zM409 355q-77 0 -131.5 54.5t-54.5 132t54.5 132t131.5 54.5t132 -54.5t55 -132t-55 -132t-132 -54.5zM409.5 697
q-64.5 0 -110.5 -45.5t-46 -110t46 -110.5t110.5 -46t110 46t45.5 110.5t-45.5 110t-110 45.5zM346 627q-6 0 -10 4q-8 11 2 18q31 24 70 24q35 0 64 -19q11 -7 4 -17.5t-18 -3.5q-23 15 -50 15q-30 0 -55 -19q-3 -2 -7 -2z" />
    <glyph glyph-name="my" unicode="&#xe624;" 
d="M500.5 427.5q15.5 0.5 26 13t10.5 31t-10.5 31.5t-26 13t-26 -13t-10.5 -31.5t10.5 -31.5t26 -12.5zM307 516q-15 0 -26 -13t-11 -31.5t11 -31.5t26 -13t26 13t11 31.5t-11 31.5t-26 13zM779 486q0 117 -83.5 200.5t-201 83.5t-201 -83.5t-83.5 -200.5q0 -84 44.5 -153
t118.5 -104q-75 -117 -42 -179q33 -61 174 -61h7q130 1 165 61q37 63 -33 189l-2 4q62 38 99.5 102.5t37.5 140.5zM617 223q60 -109 33 -157q-26 -44 -139 -45h-6q-122 0 -146 45q-25 46 43 151q46 -16 92 -16q62 0 120 27zM625 270q-15 -9 -28 -15q-49 -22 -103 -22
q-38 0 -74 12q-14 4 -31 11q-66 31 -106.5 92.5t-40.5 137.5q0 104 74 178t178.5 74t178.5 -74t74 -178q0 -68 -33 -125t-89 -91z" />
    <glyph glyph-name="qr-code" unicode="&#xe791;" 
d="M92 831h359q10 -1 16.5 -8t9 -21t3 -23.5t-0.5 -30t-1 -25.5v-196q0 -8 1 -26t0.5 -27.5t-2 -22.5t-6.5 -20.5t-13 -11t-24.5 -4t-39.5 1t-29 1.5h-190q-7 0 -27 -1t-30 -0.5t-24 2.5t-21 8.5t-9 17.5v358q8 22 28 28v0zM121 770v-296h300v300h-299q-1 0 -1 -4zM574 831
h358q24 -9 28 -32v-349q-6 -26 -25 -31q-11 -3 -26 -3.5t-35.5 1t-29.5 1.5h-184q-8 0 -29 -1.5t-36.5 -1t-25.5 3.5q-9 3 -14.5 10.5t-7.5 22t-2.5 25t0.5 30t1 26.5v183q0 8 -1 29t-0.5 31.5t2.5 24.5t8.5 21t18.5 9zM603 770v-296h299v300h-298q-2 0 -1 -4zM259 675
q27 5 46 -10t19 -40q1 -31 -25 -46.5t-53 -1.5q-19 10 -25.5 32t4 42t34.5 24zM741 675q44 8 59 -29q13 -32 -9 -58q-18 -21 -50 -16q-25 4 -35.5 27.5t-0.5 47t36 28.5zM448 -64h-355q-23 6 -29 28v357q7 22 24 27q11 2 26 2.5t35.5 -0.5t29.5 -1h184q8 0 28.5 1t36 1
t26.5 -3q10 -3 15.5 -11t7.5 -22t2.5 -24t-0.5 -29.5t-1 -26.5v-189q0 -7 1 -28t0.5 -30.5t-3 -23.5t-9.5 -20.5t-19 -7.5v0zM123 286v-292h296v296h-295q-2 0 -1 -4zM960 317v-100q-2 -8 -1.5 -53t0.5 -55h-257v58q-5 2 -38.5 1.5t-40.5 -0.5q-2 -19 -1.5 -115t0.5 -117
h-47q-12 2 -19 9.5t-9 21.5t-2.5 24.5t0.5 30.5t1 29v184q0 8 -1.5 29t-1 36.5t3.5 25.5q2 6 5 10t8.5 6.5t9.5 4t13 2t13 0.5h15.5h15.5h174v-158h81q0 14 -0.5 79.5t1.5 78.5q20 0 36.5 -0.5t28 -8t12.5 -23.5zM265 194q30 4 48.5 -19.5t7.5 -52.5q-10 -27 -39 -31.5
t-50 15t-12.5 52t45.5 36.5zM789 -64h-87q1 8 0.5 46.5t1.5 45.5h85v-92zM960 28v-60q-5 -25 -29 -32h-61q0 8 -0.5 46.5t1.5 45.5h89z" />
    <glyph glyph-name="companyprofile" unicode="&#xe626;" horiz-adv-x="1420" 
d="M1292 -128h-1166q-27 0 -46 18.5t-19 46.5v874q0 26 19.5 45.5t45.5 19.5h1168q27 0 46 -18t19 -47v-876q-1 -27 -20 -45t-47 -18zM126 833q-9 0 -15 -6t-6 -16v-876q0 -8 6.5 -15t14.5 -7h1168q10 0 16 6.5t6 15.5v876q0 9 -7 15.5t-15 6.5h-1168zM634 254l1 -11
q-72 -58 -163 -58q-98 0 -175 65l11 2q36 30 99 38q11 0 11 12v22q0 8 -11 27.5t-11 31.5q-11 22 -11 38q0 7 4 14q-4 18 -4 27q-10 53 42 78q3 0 5 26q1 9 4 8q8 -9 25.5 -15.5t35.5 -11t21 -5.5q53 -20 42 -80q-4 -18 -4 -27q4 -1 4 -14q0 -19 -11 -38q-1 -12 -11.5 -32
t-10.5 -27v-22q0 -10 11 -12q62 -6 96 -36zM634 232q-9 0 -13 4q-31 22 -88 34q-14 1 -22 11.5t-5 22.5v22q0 10 12 36q2 2 6 11.5t5 13.5q0 7 2 9q9 13 9 30q-8 9 -4 18q0 2 1 8t1 10l2 11q8 41 -27 54q-1 0 -5 1t-6 1q-22 4 -52 14q-2 -10 -14 -19q-19 -9 -25 -21t-2 -33
l1 -11q0 -4 1 -9.5t1 -8.5q3 -9 -3 -18q0 -13 9 -31q1 -2 1 -9q0 -8 9 -23q13 -19 13 -36v-20q0 -14 -7.5 -23.5t-19.5 -10.5q-57 -12 -88 -34q-7 -7 -16 -6.5t-15 7.5t-5.5 16t7.5 15q35 29 101 43v13q0 3 -7 18q-12 18 -15 38q-11 18 -11 45q0 9 4 19q0 8 -2 9l-2 11
q-13 65 45 96v3q0 26 18 34q17 4 24 -3q7 -8 27 -14t34 -8l14 -3q34 -11 48.5 -38.5t7.5 -64.5l-2 -11q0 -7 -1 -9q3 -7 3 -20q0 -8 -1.5 -15.5t-5 -17t-4.5 -12.5q-1 -12 -14 -37q0 -2 -2 -5.5t-3.5 -6t-1.5 -3.5v-12q66 -14 101 -44q16 -16 1 -30q-8 -11 -19 -11zM403 315
zM540 315zM540 425zM416 565zM1084 651h-215q-9 0 -15 6t-6 15.5t6 15.5t15 6h215q9 0 15 -6t6 -15.5t-6 -15.5t-15 -6zM1211 567h-342q-9 0 -15 6t-6 15.5t6 15.5t15 6h342q10 0 16 -6t6 -15.5t-6 -15.5t-16 -6zM1211 480h-342q-9 0 -15 6t-6 15.5t6 16t15 6.5h342
q10 0 16 -6.5t6 -16t-6 -15.5t-16 -6zM1211 396h-342q-9 0 -15 6t-6 15.5t6 15.5t15 6h342q10 0 16 -6t6 -15.5t-6 -15.5t-16 -6zM1211 309h-342q-9 0 -15 6t-6 15.5t6 16t15 6.5h342q10 0 16 -6.5t6 -16t-6 -15.5t-16 -6zM1211 225h-342q-9 0 -15 6t-6 15.5t6 15.5t15 6
h342q10 0 16 -6t6 -16q0 -21 -22 -21zM1211 138h-342q-9 0 -15 6.5t-6 15.5t6 15.5t15 6.5h342q10 0 16 -6.5t6 -15.5t-6 -15.5t-16 -6.5zM472 164q-108 0 -189 70q-44 39 -68 92t-24 109q0 112 82.5 192t198.5 80t198 -78.5t82 -193.5q0 -61 -26.5 -116t-75.5 -92
q-77 -63 -178 -63zM312 266q70 -59 160 -59q86 0 151 54q41 32 63.5 79t22.5 99q0 94 -69.5 161t-168 67t-168 -67t-69.5 -163q-1 -48 19.5 -93t58.5 -78z" />
    <glyph glyph-name="worker" unicode="&#xe629;" 
d="M350 246q-40 -29 -36 -52q3 -16 18.5 -29t28.5 -18t24 -7q2 0 12 3l-21 120q-16 -8 -26 -17zM553 325q-1 6 -1 14q0 4 3 12t3 11q13 9 33 44l4 12q5 15 8 48h-182q1 -27 8 -48l4 -11q15 -29 33 -45q0 -3 3 -11t3 -12q0 -10 -1 -14q-3 -10 -9.5 -17.5t-11.5 -10.5t-15 -7
t-13 -6q-1 -1 -3 -1l19 -135q15 2 38 3t28 1h16q29 0 66 -4l19 135q-1 0 -1.5 0.5t-1.5 0.5q0 1 -15.5 7t-22.5 13.5t-11 20.5zM639 496q0 1 -3 9q-5 9 -15 14q0 40 -22 61q-47 48 -87 48q-37 0 -87 -48q-22 -21 -22 -61q-10 -5 -15 -14q-3 -4 -3 -9h254zM512 834
q-186 0 -318 -132t-132 -318t132 -318t318 -132t318 132t132 318t-132 318t-318 132zM738 184q-4 -27 -39.5 -48t-56.5 -25q-5 3 -55.5 7.5t-69.5 3.5h-10q-19 1 -69 -3.5t-56 -7.5q-12 3 -31 11.5t-40.5 25.5t-24.5 36q-7 39 28 69q31 26 73 46q7 4 20.5 10t23 10.5
t10.5 5.5q3 7 0 21q-31 36 -38 54q-12 40 -12 67h-47q3 23 10 36q11 19 20 24q0 14 8 35.5t25 38.5q23 23 52 38t52 15h2q22 0 52 -15.5t52 -37.5q17 -17 25 -38.5t8 -35.5q9 -5 20 -24q3 -6 5.5 -15t3.5 -15l1 -6h-47q0 -30 -12 -67q-7 -18 -38 -54q-3 -14 0 -21
q2 -3 54 -26q42 -20 73 -46q36 -28 28 -69zM674 246q-8 7 -27 17l-22 -120q2 -1 5 -1.5t5 -0.5t2 -1q11 2 24.5 7t28.5 18t18 29q6 23 -34 52z" />
    <glyph glyph-name="salary" unicode="&#xe62a;" 
d="M591 560q-13 -7 -26 0l-53 39l-53 -39q-13 -7 -26 0l-52 39l-53 -39v-394h368v394l-52 39zM481 524q9 -20 20 -43.5t14 -28.5h1q0 2 3 7q3 8 16 35l15 30h37l-48 -79h33v-24h-41v-18h41v-24h-41v-33h-37v33h-42v24h42v18h-42v24h34l-45 79h40zM605 218h-186v26h184v-26h2
zM605 283h-186v26h184v-26h2zM512 834q-186 0 -318 -132t-132 -318t132 -318t318 -132t318 132t132 318t-132 318t-318 132zM722 155q0 -7 -7 -11.5t-18 -4.5h-370q-10 0 -17.5 5t-7.5 11v416q0 7 12 15l53 39q13 8 26 0l54 -39l53 39q13 8 26 0l53 -39l53 39q13 8 26 0
l54 -41q11 -4 11 -13v-416h-1z" />
    <glyph glyph-name="tounick-money" unicode="&#xe62c;" 
d="M512 834q-186 0 -318 -132t-132 -318t132 -318t318 -132t318 132t132 318t-132 318t-318 132zM648 534v-90q0 -8 -6 -13.5t-14 -5.5t-14.5 5t-6.5 13v77h-81v-259h69q7 0 12.5 -6.5t5.5 -14t-5.5 -14t-12.5 -6.5h-165q-7 0 -12.5 6.5t-5.5 14t5.5 14t12.5 6.5h68v259h-81
v-77q0 -8 -6.5 -13.5t-14.5 -5.5t-14 5.5t-6 13.5v118h272v-27z" />
  </font>
</defs>
</svg>
